<?xml version="1.0" encoding="utf-8"?>
<!-- Generator: Adobe Illustrator 16.0.0, SVG Export Plug-In . SVG Version: 6.00 Build 0)  -->
<!DOCTYPE svg PUBLIC "-//W3C//DTD SVG 1.1//EN" "http://www.w3.org/Graphics/SVG/1.1/DTD/svg11.dtd">
<svg version="1.1" id="Layer_1" xmlns="http://www.w3.org/2000/svg" xmlns:xlink="http://www.w3.org/1999/xlink" x="0px" y="0px"
	 width="187.222px" height="188.135px" viewBox="0 0 187.222 188.135" enable-background="new 0 0 187.222 188.135"
	 xml:space="preserve">
<path fill="#E9EBEE" d="M181.795,186.446L1.848,182.105L6.189,2.158L186.137,6.5L181.795,186.446z M186.162,5.429l1.06,0.013
	l-0.014,1.084c-0.521,40.434-1.68,80.194-2.232,118.208c-0.103,7.164-0.405,39.895-1.499,56.413
	c-1.069,16.134-1.045-8.977-1.046-14.912c-0.003-52.781,0.854-106.068,2.101-159.773l1.566,1.644
	C126.581,6.724,66.552,4.864,6.165,3.17l1.036-0.987c-1.675,59.67-3.188,119.71-3.919,179.957l-1.399-1.469l1.569,0.02
	c48.068,0.572,107.484,1.671,161.795,4.782c8.65,0.493,26.893,2.954,8.796,2.633c-8.712-0.155-22.685-0.582-31.178-0.829
	c-45.699-1.324-92.465-2.482-141.054-3.613l-1.556-0.036l0.036-1.56C1.61,123.996,2.975,63.954,4.38,2.115l0.041-1.81l1.812,0.044
	C23.558,0.767,41.423,1.197,59.388,1.63c40.249,0.999,81.751,3.261,123.2,3.755C183.791,5.399,184.994,5.415,186.162,5.429z"/>
</svg>
