<!-- Generator: Adobe Illustrator 22.0.0, SVG Export Plug-In  -->
<svg version="1.1"
	 xmlns="http://www.w3.org/2000/svg" xmlns:xlink="http://www.w3.org/1999/xlink" xmlns:a="http://ns.adobe.com/AdobeSVGViewerExtensions/3.0/"
	 x="0px" y="0px" width="662.2px" height="447.6px" viewBox="0 0 662.2 447.6" style="enable-background:new 0 0 662.2 447.6;"
	 xml:space="preserve">
<style type="text/css">
	.st0{fill:#F2F2F2;}
</style>
<defs>
</defs>
<g>
	<g>
		<path class="st0" d="M425.6,444.4L659.1,231c2-2,3.1-4.7,3.1-7.6c0-2.8-1.1-5.5-3.1-7.6L425.5,3.1c-3.1-3.1-7.6-3.9-11.6-2.3
			c-4,1.7-6.6,5.5-6.6,9.9V148H10.7C4.8,148,0,152.8,0,158.7l0,130.7c0,5.9,4.8,10.7,10.7,10.7h396.7v136.9c0,4.3,2.6,8.2,6.6,9.9
			C417.9,448.4,422.5,447.5,425.6,444.4z"/>
	</g>
</g>
</svg>

